<svg viewBox="0 0 320 320" fill="none" xmlns="http://www.w3.org/2000/svg" role="img" aria-label="Real A11y">
<title>Real A11y</title>
<g clip-path="url(#clip0_8_6)">
<rect width="320" height="320" fill="white"/>
<g filter="url(#filter0_d_8_6)">
<path d="M75.3409 154V44.9091H91.5341V61.3864H92.6705C94.6591 55.9886 98.2576 51.6089 103.466 48.2472C108.674 44.8854 114.545 43.2045 121.08 43.2045C122.311 43.2045 123.849 43.2282 125.696 43.2756C127.543 43.3229 128.939 43.3939 129.886 43.4886V60.5341C129.318 60.392 128.016 60.179 125.98 59.8949C123.991 59.5634 121.884 59.3977 119.659 59.3977C114.356 59.3977 109.621 60.5104 105.455 62.7358C101.335 64.9138 98.0682 67.9441 95.6534 71.8267C93.286 75.6619 92.1023 80.0417 92.1023 84.9659V154H75.3409Z" fill="black"/>
</g>
<path d="M79.5739 276.591C73.2102 276.591 67.5923 274.983 62.7202 271.768C57.848 268.52 54.0365 263.946 51.2855 258.047C48.5346 252.114 47.1591 245.104 47.1591 237.017C47.1591 228.996 48.5346 222.036 51.2855 216.136C54.0365 210.237 57.8646 205.679 62.7699 202.464C67.6752 199.25 73.3428 197.642 79.7727 197.642C84.7443 197.642 88.6719 198.471 91.5554 200.128C94.4721 201.752 96.6927 203.608 98.2173 205.696C99.7751 207.751 100.985 209.441 101.847 210.767H102.841V173.182H114.574V275H103.239V263.267H101.847C100.985 264.659 99.7585 266.416 98.1676 268.537C96.5767 270.625 94.3063 272.498 91.3565 274.155C88.4067 275.779 84.4792 276.591 79.5739 276.591ZM81.1648 266.051C85.8712 266.051 89.8485 264.825 93.0966 262.372C96.3447 259.886 98.8139 256.456 100.504 252.081C102.195 247.673 103.04 242.585 103.04 236.818C103.04 231.117 102.211 226.129 100.554 221.854C98.8968 217.545 96.4441 214.197 93.196 211.811C89.9479 209.392 85.9375 208.182 81.1648 208.182C76.1932 208.182 72.0502 209.458 68.7358 212.01C65.4545 214.529 62.9853 217.959 61.3281 222.301C59.7041 226.61 58.892 231.449 58.892 236.818C58.892 242.254 59.7206 247.192 61.3778 251.634C63.0682 256.042 65.554 259.555 68.8352 262.173C72.1496 264.759 76.2595 266.051 81.1648 266.051ZM169.709 276.591C162.351 276.591 156.004 274.967 150.668 271.719C145.365 268.438 141.271 263.864 138.388 257.997C135.537 252.098 134.112 245.237 134.112 237.415C134.112 229.593 135.537 222.699 138.388 216.733C141.271 210.734 145.282 206.061 150.419 202.713C155.589 199.332 161.622 197.642 168.516 197.642C172.493 197.642 176.42 198.305 180.298 199.631C184.176 200.956 187.706 203.111 190.888 206.094C194.07 209.044 196.605 212.955 198.494 217.827C200.384 222.699 201.328 228.698 201.328 235.824V240.795H142.464V230.653H189.396C189.396 226.345 188.535 222.5 186.811 219.119C185.121 215.739 182.701 213.071 179.553 211.115C176.437 209.16 172.758 208.182 168.516 208.182C163.842 208.182 159.799 209.342 156.385 211.662C153.004 213.949 150.402 216.932 148.58 220.611C146.757 224.29 145.845 228.234 145.845 232.443V239.205C145.845 244.972 146.839 249.86 148.828 253.871C150.85 257.848 153.651 260.881 157.23 262.969C160.81 265.024 164.969 266.051 169.709 266.051C172.791 266.051 175.575 265.62 178.061 264.759C180.58 263.864 182.751 262.538 184.574 260.781C186.397 258.991 187.805 256.771 188.8 254.119L200.135 257.301C198.942 261.146 196.937 264.527 194.119 267.443C191.302 270.327 187.822 272.58 183.679 274.205C179.536 275.795 174.879 276.591 169.709 276.591ZM279.295 198.636L251.056 275H239.125L210.886 198.636H223.613L244.693 259.489H245.488L266.568 198.636H279.295Z" fill="black"/>
<path d="M207.443 156.557C200.53 156.557 194.257 155.255 188.622 152.651C182.988 149.999 178.513 146.188 175.199 141.216C171.884 136.197 170.227 130.136 170.227 123.034C170.227 116.784 171.458 111.718 173.92 107.835C176.383 103.905 179.673 100.828 183.793 98.6023C187.912 96.3769 192.457 94.7197 197.429 93.6307C202.448 92.4943 207.491 91.5947 212.557 90.9318C219.186 90.0795 224.56 89.4403 228.679 89.0142C232.846 88.5407 235.876 87.7595 237.77 86.6705C239.711 85.5814 240.682 83.6875 240.682 80.9886V80.4205C240.682 73.4129 238.764 67.9678 234.929 64.0852C231.141 60.2027 225.388 58.2614 217.67 58.2614C209.669 58.2614 203.395 60.0133 198.849 63.517C194.304 67.0208 191.108 70.7614 189.261 74.7386L173.352 69.0568C176.193 62.428 179.981 57.267 184.716 53.5739C189.498 49.8333 194.706 47.2292 200.341 45.7614C206.023 44.2462 211.61 43.4886 217.102 43.4886C220.606 43.4886 224.631 43.9148 229.176 44.767C233.769 45.572 238.196 47.2528 242.457 49.8097C246.766 52.3665 250.341 56.2254 253.182 61.3864C256.023 66.5473 257.443 73.4602 257.443 82.125V154H240.682V139.227H239.83C238.693 141.595 236.799 144.128 234.148 146.827C231.496 149.526 227.969 151.822 223.565 153.716C219.162 155.61 213.788 156.557 207.443 156.557ZM210 141.5C216.629 141.5 222.216 140.198 226.761 137.594C231.354 134.99 234.811 131.628 237.131 127.509C239.498 123.389 240.682 119.057 240.682 114.511V99.1705C239.972 100.023 238.409 100.804 235.994 101.514C233.627 102.177 230.881 102.769 227.756 103.29C224.678 103.763 221.671 104.189 218.736 104.568C215.848 104.9 213.504 105.184 211.705 105.42C207.348 105.989 203.277 106.912 199.489 108.19C195.748 109.421 192.718 111.292 190.398 113.801C188.125 116.263 186.989 119.625 186.989 123.886C186.989 129.71 189.143 134.114 193.452 137.097C197.808 140.032 203.324 141.5 210 141.5Z" fill="black"/>
<rect x="25" y="25" width="270" height="270" stroke="black" stroke-width="10"/>
</g>
<defs>
<filter id="filter0_d_8_6" x="-4.65909" y="43.2045" width="214.545" height="270.795" filterUnits="userSpaceOnUse" color-interpolation-filters="sRGB">
<feFlood flood-opacity="0" result="BackgroundImageFix"/>
<feColorMatrix in="SourceAlpha" type="matrix" values="0 0 0 0 0 0 0 0 0 0 0 0 0 0 0 0 0 0 127 0" result="hardAlpha"/>
<feOffset dy="80"/>
<feGaussianBlur stdDeviation="40"/>
<feComposite in2="hardAlpha" operator="out"/>
<feColorMatrix type="matrix" values="0 0 0 0 0 0 0 0 0 0 0 0 0 0 0 0 0 0 0.25 0"/>
<feBlend mode="normal" in2="BackgroundImageFix" result="effect1_dropShadow_8_6"/>
<feBlend mode="normal" in="SourceGraphic" in2="effect1_dropShadow_8_6" result="shape"/>
</filter>
<clipPath id="clip0_8_6">
<rect width="320" height="320" fill="white"/>
</clipPath>
</defs>
</svg>
